<?xml version="1.0" encoding="iso-8859-1"?>
<!-- Uploaded to: SVG Repo, www.svgrepo.com, Generator: SVG Repo Mixer Tools -->
<svg width="37" height="20" viewBox="0 0 37 20" fill="none" xmlns="http://www.w3.org/2000/svg">
	<path fillRule="evenodd" clipRule="evenodd" d="M15.7739 13.9837H16.3784C16.1726 15.4911 15.6196 16.7419 14.7386 17.7426C13.5811 19.0447 11.8385 19.6926 9.52353 19.6926C7.20857 19.6926 5.27943 19.141 3.97405 18.0441C2.66867 16.9472 2.01919 15.3243 2.01919 13.1883C2.01919 12.7264 2.02562 12.0144 2.05134 11.0522C2.07064 10.0901 2.0835 9.36521 2.0835 8.88412C2.04491 6.02965 2.00633 4.27849 1.96775 3.6242C1.90987 2.50808 1.74911 1.71267 1.4919 1.238C1.22825 0.763324 0.733102 0.461841 3.05176e-05 0.327135V0.00640869C2.80371 0.141114 5.59452 0.141114 8.37248 0.00640869V0.327135C7.56224 0.481084 7.00279 0.788981 6.70699 1.25083C6.40476 1.71267 6.21828 2.50166 6.14111 3.6242C6.04466 5.56781 5.99321 8.55698 5.99321 12.5853C5.99321 14.7598 6.41119 16.3186 7.25358 17.2551C8.09597 18.1916 9.29846 18.6599 10.8611 18.6599C12.4237 18.6599 13.6262 18.121 14.5264 17.0434C15.1888 16.2416 15.6132 15.2281 15.7804 13.9965L15.7739 13.9837ZM23.2397 13.9837H27.831L24.8473 18.8523H29.3679C30.1203 18.8523 30.7633 18.7561 31.297 18.5637C31.8308 18.3712 32.3388 18.012 32.8339 17.4924C33.3291 16.9728 33.7663 16.4276 34.1522 15.8567C34.538 15.2858 35.0524 14.4712 35.689 13.4128C35.9205 13.0087 36.107 12.7008 36.2421 12.4891L36.5314 12.5468C36.107 14.6251 35.7276 16.9215 35.3997 19.4232C31.998 19.3847 29.355 19.3655 27.4581 19.3655L20.1852 19.3975L20.1273 19.0512L23.2461 13.9773L23.2397 13.9837Z" fill="white"/>
	<path fillRule="evenodd" clipRule="evenodd" d="M15.8639 7.49217H16.4748V5.09314C16.4748 3.55365 16.6548 2.41186 17.0085 1.68061C17.3686 0.949351 17.9795 0.493919 18.8476 0.320727V0C16.9763 0.0769744 15.0986 0.0769744 13.2274 0V0.320727C14.2498 0.55165 14.9443 1.01991 15.3109 1.72551C15.6774 2.43111 15.8639 3.56007 15.8639 5.1188V7.49217ZM27.2265 7.49217H31.8178L36.1777 0.378458L36.152 0.0320728L29.6315 0.0641456C27.9145 0.0641456 25.2781 0.0449019 21.722 0.00641468C21.4712 1.60363 21.034 3.71402 20.4166 6.33756L20.706 6.39529C22.1914 4.18227 23.4132 2.65562 24.3585 1.82814C25.3038 1.00067 26.4741 0.583722 27.8631 0.583722L31.4577 0.615795L27.2265 7.49859V7.49217Z" fill="white"/>
	<path fillRule="evenodd" clipRule="evenodd" d="M13.4268 12.6815C13.1567 12.6815 13.1439 12.6366 13.1439 12.5853C13.1439 12.534 13.221 12.4634 13.3754 12.4634C13.5297 12.4634 13.684 12.5275 13.684 12.5275L13.7483 12.38C13.7483 12.38 13.6133 12.303 13.3947 12.303C13.1503 12.303 12.9767 12.3993 12.9767 12.5981C12.9767 12.7649 13.1053 12.8419 13.3368 12.8419C13.5683 12.8419 13.6261 12.8803 13.6261 12.9573C13.6261 13.0343 13.5361 13.0664 13.3754 13.0664C13.2146 13.0664 12.9895 12.9637 12.9895 12.9637L12.9124 13.1113C12.9124 13.1113 13.1439 13.2267 13.3882 13.2267C13.6326 13.2267 13.7933 13.1177 13.7933 12.9573C13.7933 12.797 13.6647 12.6815 13.4332 12.6815H13.4268Z" fill="white"/>
	<path d="M14.5393 12.3095H14.3592V13.214H14.5393V12.3095Z" fill="white"/>
	<path fillRule="evenodd" clipRule="evenodd" d="M15.8382 13.214H16.0054V12.3095H15.8382V12.9445L15.3302 12.3095H15.1566V13.214H15.3237V12.5725L15.8382 13.214Z" fill="white"/>
	<path fillRule="evenodd" clipRule="evenodd" d="M17.0986 13.0664C16.8607 13.0664 16.7642 12.9509 16.7642 12.7585C16.7642 12.566 16.8607 12.4506 17.0986 12.4506C17.2465 12.4506 17.3365 12.4955 17.388 12.5725L17.5295 12.4827C17.4394 12.3672 17.2915 12.2902 17.0986 12.2902C16.7835 12.2902 16.5777 12.4955 16.5777 12.7585C16.5777 13.0215 16.7835 13.2203 17.0986 13.2203C17.2915 13.2203 17.4394 13.1434 17.5295 13.0279L17.388 12.9381C17.3365 13.0151 17.2465 13.06 17.0986 13.06V13.0664Z" fill="white"/>
	<path fillRule="evenodd" clipRule="evenodd" d="M18.2691 12.8227H18.7256V12.6687H18.2691V12.4635H18.8349V12.3095H18.089V13.214H18.8542V13.06H18.2691V12.8227Z" fill="white"/>
	<path fillRule="evenodd" clipRule="evenodd" d="M20.7317 12.8547C21.0275 12.8547 21.0982 12.7456 21.0982 12.5725C21.0982 12.3993 20.9889 12.2966 20.7703 12.2966C20.5516 12.2966 20.3652 12.3736 20.3652 12.3736L20.378 12.5532C20.378 12.5532 20.5516 12.4442 20.7188 12.4442C20.886 12.4442 20.9117 12.4891 20.9117 12.5725C20.9117 12.6558 20.8796 12.6943 20.6931 12.6943C20.5066 12.6943 20.2944 12.8483 20.2944 13.0535V13.2075H21.0661V13.0535H20.4809C20.4809 12.9381 20.5709 12.8483 20.7253 12.8483L20.7317 12.8547Z" fill="white"/>
	<path fillRule="evenodd" clipRule="evenodd" d="M22.1401 12.2966C21.825 12.2966 21.6771 12.5019 21.6771 12.7585C21.6771 13.0151 21.825 13.2267 22.1401 13.2267C22.4552 13.2267 22.6096 13.0215 22.6096 12.7585C22.6096 12.4955 22.4617 12.2966 22.1401 12.2966ZM22.1401 13.0664C21.9086 13.0664 21.8636 12.9509 21.8636 12.7585C21.8636 12.566 21.9086 12.4506 22.1401 12.4506C22.3716 12.4506 22.4166 12.566 22.4166 12.7585C22.4166 12.9509 22.3716 13.0664 22.1401 13.0664Z" fill="white"/>
	<path fillRule="evenodd" clipRule="evenodd" d="M23.5935 12.3095H23.4134C23.4134 12.4378 23.2977 12.5019 23.1883 12.5019V12.6687C23.3427 12.6687 23.4134 12.5789 23.4134 12.5789V13.06H23.1819V13.214H23.8314V13.06H23.5999V12.3095H23.5935Z" fill="white"/>
	<path fillRule="evenodd" clipRule="evenodd" d="M24.8345 12.2966C24.5194 12.2966 24.3715 12.5019 24.3715 12.7585C24.3715 13.0151 24.5194 13.2267 24.8345 13.2267C25.1496 13.2267 25.3039 13.0215 25.3039 12.7585C25.3039 12.4955 25.156 12.2966 24.8345 12.2966ZM24.8345 13.0664C24.603 13.0664 24.558 12.9509 24.558 12.7585C24.558 12.566 24.603 12.4506 24.8345 12.4506C25.066 12.4506 25.111 12.566 25.111 12.7585C25.111 12.9509 25.066 13.0664 24.8345 13.0664Z" fill="white"/>
	<path fillRule="evenodd" clipRule="evenodd" d="M8.71325 9.33308C8.70682 9.53835 8.70039 9.76286 8.70039 10.0066C8.70039 10.2953 8.70039 10.5454 8.71325 10.7635C8.71325 10.8854 8.73897 10.9688 8.77755 11.0137C8.81614 11.0586 8.88044 11.0843 8.97047 11.0843H9.09264C9.20839 11.0843 9.30485 11.0329 9.38201 10.9239C9.46561 10.8148 9.58136 10.6096 9.74855 10.2953H9.7807C9.74855 10.5711 9.72926 10.8533 9.7164 11.1484H8.59107C8.30813 11.142 8.10236 11.1484 7.96732 11.1484V11.1099C8.0702 11.0907 8.14094 11.0522 8.17952 11.0009C8.2181 10.9495 8.23739 10.8597 8.24383 10.7315C8.25026 10.5326 8.25669 10.2888 8.25669 10.0194C8.25669 9.75003 8.25669 9.53193 8.24383 9.3395C8.23739 9.21121 8.21167 9.11499 8.17309 9.06367C8.13451 9.01236 8.0702 8.97387 7.96732 8.95463V8.91614C8.32099 8.92897 8.67467 8.92897 9.03477 8.91614V8.95463C8.91902 8.97387 8.84186 9.01236 8.79684 9.07009C8.75183 9.1214 8.72611 9.21121 8.71968 9.3395L8.71325 9.33308Z" fill="white"/>
	<path fillRule="evenodd" clipRule="evenodd" d="M12.8031 10.8405C12.6102 11.065 12.3466 11.1741 12.0122 11.1741C11.6778 11.1741 11.427 11.065 11.2405 10.8534C11.0605 10.6417 10.964 10.3723 10.964 10.0451C10.964 9.71799 11.0605 9.43575 11.2534 9.21124C11.4463 8.98673 11.71 8.87769 12.0444 8.87769C12.3787 8.87769 12.636 8.98673 12.816 9.19841C12.9961 9.41009 13.0925 9.6795 13.0925 10.0131C13.0925 10.3466 12.9961 10.616 12.7967 10.8405H12.8031ZM12.4559 9.2369C12.3659 9.04446 12.2244 8.94183 12.0315 8.94183C11.8386 8.94183 11.6971 9.04446 11.6006 9.24331C11.5042 9.44216 11.4592 9.70516 11.4592 10.0387C11.4592 10.3723 11.5042 10.6353 11.6006 10.8277C11.6907 11.0201 11.8321 11.1164 12.0251 11.1164C12.218 11.1164 12.3594 11.0201 12.4559 10.8213C12.5524 10.6224 12.5974 10.3594 12.5974 10.0323C12.5974 9.70516 12.5524 9.43575 12.4623 9.2369H12.4559Z" fill="white"/>
	<path fillRule="evenodd" clipRule="evenodd" d="M15.5553 11.1485H15.491L14.6486 9.20487V10.6161C14.6486 10.7828 14.6679 10.9047 14.7065 10.9689C14.7451 11.0394 14.8222 11.0779 14.9316 11.0972V11.1356C14.7193 11.1292 14.5071 11.1292 14.2949 11.1356V11.0972C14.3978 11.0779 14.4686 11.033 14.5071 10.9689C14.5457 10.9047 14.5714 10.7957 14.5779 10.6353C14.5843 10.4557 14.5907 10.244 14.5907 10.0003C14.5907 9.74369 14.5907 9.51918 14.5779 9.33316C14.5714 9.19845 14.5457 9.10224 14.5071 9.04451C14.4686 8.99319 14.3978 8.9547 14.2949 8.93546V8.89697C14.5714 8.89697 14.8222 8.89697 15.0473 8.89697C15.1695 9.22411 15.3945 9.76935 15.7225 10.5263L16.1405 9.51918C16.2176 9.32033 16.2948 9.11507 16.3591 8.90339C16.597 8.9098 16.8414 8.9098 17.0858 8.90339V8.94187C16.9829 8.96112 16.9186 8.99961 16.88 9.05092C16.8414 9.10224 16.8221 9.19204 16.8092 9.32033C16.8028 9.51277 16.7964 9.73728 16.7964 10.0003C16.7964 10.2761 16.7964 10.5134 16.8092 10.7123C16.8157 10.8406 16.835 10.9304 16.8735 10.9817C16.9121 11.033 16.9829 11.0715 17.0793 11.0907V11.1292C16.7449 11.1164 16.4041 11.1164 16.0633 11.1292V11.0907C16.1598 11.0715 16.2305 11.0394 16.2627 10.9817C16.3012 10.9304 16.3205 10.8342 16.327 10.7059C16.3398 10.5198 16.3463 10.2825 16.3463 9.99386C16.3463 9.7052 16.3463 9.42938 16.3398 9.19846L15.5489 11.1356L15.5553 11.1485Z" fill="white"/>
	<path fillRule="evenodd" clipRule="evenodd" d="M18.2497 8.90979C18.449 8.9162 18.6355 8.9162 18.822 8.9162H19.2914C19.5615 8.90979 19.7673 8.94828 19.9152 9.03808C20.0631 9.12788 20.1338 9.25618 20.1338 9.43578C20.1338 9.58973 20.0824 9.71161 19.9795 9.80141C19.8766 9.89121 19.7415 9.94895 19.5679 9.96819C19.7737 9.98743 19.9409 10.0387 20.0566 10.1286C20.1724 10.2248 20.2367 10.3531 20.2367 10.5198C20.2367 10.7187 20.1595 10.8791 20.0116 10.9881C19.8637 11.0971 19.6387 11.1485 19.3557 11.1485H18.9184C18.7127 11.1485 18.494 11.1485 18.2561 11.1485V11.11C18.359 11.0907 18.4297 11.0522 18.4683 11.0009C18.5069 10.9496 18.5262 10.8598 18.5326 10.7315C18.5391 10.5327 18.5455 10.2889 18.5455 10.0195C18.5455 9.75009 18.5455 9.532 18.5326 9.33956C18.5262 9.21127 18.5005 9.11506 18.4619 9.06374C18.4233 9.01242 18.359 8.97394 18.2561 8.95469V8.9162L18.2497 8.90979ZM19.0085 9.26259C18.9956 9.49993 18.9892 9.73085 18.9892 9.94894H19.2657C19.3879 9.94894 19.4843 9.90404 19.5486 9.81424C19.6129 9.72444 19.6451 9.59615 19.6451 9.42937C19.6451 9.28183 19.6129 9.16637 19.5486 9.0894C19.4843 9.01242 19.3943 8.97394 19.285 8.97394H19.2207C19.1499 8.97394 19.0921 8.99318 19.0599 9.03808C19.0278 9.07657 19.0085 9.15354 19.002 9.26259H19.0085ZM19.2528 11.0779H19.3429C19.4715 11.0779 19.5744 11.0266 19.6387 10.9304C19.703 10.8342 19.7415 10.693 19.7415 10.5263C19.7415 10.3595 19.703 10.2376 19.6322 10.1478C19.5615 10.058 19.4522 10.0195 19.3171 10.0195H18.9892C18.9892 10.3082 18.9892 10.5583 19.002 10.7764C19.002 10.8919 19.0278 10.9753 19.0599 11.0202C19.0921 11.0651 19.1564 11.0843 19.2528 11.0843V11.0779Z" fill="white"/>
	<path fillRule="evenodd" clipRule="evenodd" d="M23.587 11.1099V11.1484C23.2783 11.1356 22.9761 11.1356 22.6674 11.1484V11.1099C22.7575 11.0907 22.8153 11.0586 22.8411 11.0073C22.8668 10.956 22.8668 10.8854 22.8411 10.7764C22.7832 10.6032 22.7317 10.4621 22.6932 10.3594H21.9601L21.8315 10.6866C21.7415 10.9175 21.8122 11.0586 22.0373 11.1035V11.142C21.8251 11.1356 21.6128 11.1356 21.4071 11.142V11.1035C21.4907 11.065 21.5614 11.0137 21.6129 10.9496C21.6643 10.8854 21.7093 10.7892 21.7608 10.6673L22.481 8.87769H22.5453C22.6417 9.14068 22.7446 9.39085 22.8475 9.62819L23.3169 10.7251C23.3748 10.8534 23.4198 10.9432 23.452 10.9881C23.4841 11.033 23.5291 11.065 23.587 11.0971V11.1099ZM22.3138 9.48065L21.9922 10.2953H22.6739C22.5967 10.0964 22.481 9.82704 22.3266 9.48065H22.3202H22.3138Z" fill="white"/>
	<path fillRule="evenodd" clipRule="evenodd" d="M26.9436 10.9816C26.8793 11.1099 26.7571 11.1805 26.5642 11.1805C26.4742 11.1805 26.397 11.1676 26.3327 11.142C26.2684 11.1163 26.2234 11.0714 26.1848 11.0137C26.1463 10.956 26.1205 10.9046 26.1077 10.8533C26.0884 10.8084 26.0755 10.7379 26.0498 10.6481C25.9984 10.4428 25.9598 10.3017 25.9212 10.2439C25.8633 10.1477 25.7733 10.0964 25.6575 10.0964H25.426C25.426 10.3337 25.426 10.5454 25.4389 10.7315C25.4389 10.8597 25.4646 10.9495 25.5032 11.0009C25.5418 11.0522 25.6125 11.0907 25.7154 11.1099V11.1484C25.3746 11.1356 25.0338 11.1356 24.6865 11.1484V11.1099C24.7894 11.0907 24.8602 11.0522 24.8987 11.0009C24.9373 10.9495 24.9566 10.8597 24.963 10.7315C24.9695 10.5326 24.9759 10.2888 24.9759 10.0194C24.9759 9.75003 24.9759 9.53193 24.963 9.3395C24.9566 9.21121 24.9309 9.11499 24.8923 9.06367C24.8537 9.01236 24.7894 8.97387 24.6865 8.95463V8.91614C24.8859 8.92255 25.0788 8.92255 25.2588 8.92255H25.7797C26.0434 8.90972 26.2556 8.96104 26.4035 9.05726C26.5514 9.15348 26.6285 9.2946 26.6285 9.48062C26.6285 9.79493 26.4035 9.98737 25.9598 10.0579V10.0708C26.1591 10.1092 26.3006 10.167 26.3777 10.2632C26.4549 10.353 26.5128 10.4877 26.5578 10.6609C26.6028 10.8341 26.6414 10.9367 26.6735 10.9752C26.7057 11.0137 26.7507 11.0329 26.8022 11.0329C26.8472 11.0329 26.8858 11.0137 26.9115 10.9688L26.9436 10.988V10.9816ZM25.4325 10.0002V10.0259H25.754C26.0176 10.0259 26.1527 9.84625 26.1527 9.48703C26.1527 9.32025 26.1205 9.19196 26.0498 9.10216C25.9791 9.01236 25.889 8.97387 25.7669 8.97387H25.6833C25.6061 8.97387 25.5482 8.99311 25.5161 9.0316C25.4839 9.07009 25.4646 9.14706 25.4582 9.26252C25.4453 9.52552 25.4389 9.76927 25.4389 10.0002H25.4325Z" fill="white"/>
	<path fillRule="evenodd" clipRule="evenodd" d="M29.04 11.142H28.6606C28.4548 11.1356 28.2362 11.1356 27.9983 11.142V11.1036C28.1012 11.0843 28.1719 11.0458 28.2105 10.9945C28.2491 10.9432 28.2684 10.8534 28.2748 10.7251C28.2812 10.5263 28.2876 10.2825 28.2876 10.0131C28.2876 9.74368 28.2876 9.52559 28.2748 9.33315C28.2684 9.20486 28.2426 9.10864 28.2041 9.05733C28.1655 9.00601 28.1012 8.96752 27.9983 8.94828V8.90979C28.1976 8.9162 28.3841 8.9162 28.5706 8.9162H29.04C29.413 8.90338 29.7088 8.99959 29.9274 9.20486C30.146 9.40371 30.2554 9.67312 30.2554 10.0003C30.2554 10.3274 30.146 10.6161 29.9338 10.8342C29.7216 11.0458 29.4194 11.1549 29.04 11.1485V11.142ZM29.0079 11.0779H29.0657C29.2908 11.0779 29.4644 10.9753 29.5802 10.7764C29.6959 10.5776 29.7538 10.3082 29.7538 9.9746C29.7538 9.68595 29.6959 9.44861 29.5802 9.25618C29.4644 9.06374 29.2972 8.96752 29.0722 8.96752H29.0014C28.9243 8.96752 28.8664 8.98676 28.8278 9.02525C28.7892 9.06374 28.7699 9.12789 28.7635 9.2241C28.7506 9.49351 28.7442 9.75009 28.7442 9.99385C28.7442 10.2889 28.7442 10.5519 28.7571 10.77C28.7571 10.8855 28.7828 10.9624 28.8149 11.0073C28.8535 11.0522 28.9178 11.0715 29.0143 11.0715L29.0079 11.0779Z" fill="white"/>
	</svg>
	